# xmcd
# Track frame offsets:
# 150
# 16607
# 33172
# 81310
#
# Disc length: 1587 seconds
# Revision: 6
# Processed by: cddbd v1.5.2PL0 Copyright (c) Steve Scherf et al.
# Submitted via: VisiTrax 2.11.3.279 - For more info visit www.synapsa.com
#
DISCID=1e063104
DTITLE=DJ Sakin and Friends - Protect Your Mind (Braveheart)
DYEAR=1998
DGENRE=Trance
TTITLE0=Protect Your Mind (Braveheart) (Vocal Version)
TTITLE1=Protect Your Mind (Braveheart) (Instrumental Version)
TTITLE2=Protect Your Mind (Braveheart) (Suspicious Remix)
TTITLE3=Protect Your Mind (Braveheart) (Original Mix)
EXTD=
EXTT0=
EXTT1=
EXTT2=
EXTT3=
PLAYORDER=
